# AST/ASF file generated using VICON BodyLanguage
# -----------------------------------------------
:version 1.10
:name VICON
:units
  mass 1.0
  length 0.45
  angle deg
:documentation
   .ast/.asf automatically generated from VICON data using
   VICON BodyBuilder and BodyLanguage model FoxedUp or BRILLIANT.MOD
:root
   order TX TY TZ RX RY RZ
   axis XYZ
   position 0 0 0  
   orientation 0 0 0 
:bonedata
  begin
     id 1 
     name lhipjoint
     direction 0.693937 -0.600361 0.397515 
     length 2.37164 
     axis 0 0 0  XYZ
  end
  begin
     id 2 
     name lfemur
     direction 0.34202 -0.939693 0  
     length 6.18497  
     axis 0 0 20  XYZ
    dof rx ry rz
    limits (-160.0 20.0)
           (-70.0 70.0)
           (-60.0 70.0)
  end
  begin
     id 3 
     name ltibia
     direction 0.34202 -0.939693 0   
     length 6.91601   
     axis 0 0 20   XYZ
    dof rx
    limits (-10.0 170.0)
  end
  begin
     id 4 
     name lfoot
     direction 0.0978718 -0.2689 0.958182   
     length 1.81453   
     axis -90 7.62852e-016 20   XYZ
    dof rx rz
    limits (-45.0 90.0)
           (-70.0 20.0)
  end
  begin
     id 5 
     name ltoes
     direction 1.53569e-011 -4.21951e-011 1   
     length 0.912052   
     axis -90 7.62852e-016 20   XYZ
    dof rx
    limits (-90.0 20.0)
  end
  begin
     id 6 
     name rhipjoint
     direction -0.643996 -0.637876 0.422354   
     length 2.23216  
     axis 0 0 0  XYZ 
  end
  begin
     id 7 
     name rfemur
     direction -0.34202 -0.939693 0   
     length 6.15404   
     axis 0 0 -20   XYZ
    dof rx ry rz
    limits (-160.0 20.0)
           (-70.0 70.0)
           (-70.0 60.0)
  end
  begin
     id 8 
     name rtibia
     direction -0.34202 -0.939693 0   
     length 6.86744   
     axis 0 0 -20   XYZ
    dof rx
    limits (-10.0 170.0)
 end
 begin
     id 9 
     name rfoot
     direction -0.118701 -0.326127 0.937844   
     length 1.9243  
     axis -90 -7.62852e-016 -20   XYZ
    dof rx rz
    limits (-45.0 90.0)
           (-20.0 70.0)
  end
  begin
     id 10 
     name rtoes
     direction -1.5356e-011 -4.2181e-011 1   
     length 0.958865   
     axis -90 -7.62852e-016 -20   XYZ
    dof rx
    limits (-90.0 20.0)
  end
  begin
     id 11 
     name lowerback
     direction 0.0310826 0.968686 -0.246334   
     length 2.00021   
     axis 0 0 0   XYZ
    dof rx ry rz
    limits (-20.0 45.0)
           (-30.0 30.0)
           (-30.0 30.0)
  end
  begin
     id 12 
     name upperback
     direction -0.0152834 0.999474 -0.0286152   
     length 2.03728   
     axis 0 0 0   XYZ
    dof rx ry rz
    limits (-20.0 45.0)
           (-30.0 30.0)
           (-30.0 30.0)
  end
  begin
     id 13 
     name thorax
     direction -0.0323701 0.996236 0.0804149   
     length 2.16   
     axis 0 0 0   XYZ
    dof rx ry rz
    limits (-20.0 45.0)
           (-30.0 30.0)
           (-30.0 30.0)
  end
  begin
     id 14 
     name lowerneck
     direction 0.0307935 0.982251 0.185027   
     length 1.43558   
     axis 0 0 0   XYZ
    dof rx ry rz
    limits (-20.0 45.0)
           (-30.0 30.0)
           (-30.0 30.0)
  end
  begin
     id 15 
     name upperneck
     direction -0.0927153 0.994775 0.0427454   
     length 1.44603   
     axis 0 0 0   XYZ
    dof rx ry rz
    limits (-20.0 45.0)
           (-30.0 30.0)
           (-30.0 30.0)
  end
  begin
     id 16
     name head
     direction -0.0341265 0.999406 -0.00472033  
     length 1.45931  
     axis 0 0 0   XYZ
    dof rx ry rz
    limits (-20.0 45.0)
           (-30.0 30.0)
           (-30.0 30.0)
  end
  begin
     id 17 
     name lclavicle
     direction 0.820755 0.555306 -0.134151  
     length 2.66075  
     axis 0 0 0   XYZ
    dof ry rz
    limits (-20.0 10.0)
           (0.0 20.0)
  end
  begin
     id 18 
     name lhumerus
     direction 1 -4.48971e-011 5.24853e-027   
     length 5.0546   
     axis -180 -30 -90   XYZ
    dof rx ry rz
    limits (-60.0 90.0)
           (-90.0 90.0)
           (-90.0 90.0)
  end
  begin
     id 19
     name lradius
     direction 1 -4.48971e-011 2.76575e-028   
     length 3.39013   
     axis -180 -30 -90   XYZ
    dof rx
    limits (-10.0 170.0)
  end
  begin
     id 20
     name lwrist
     direction 1 -4.48939e-011 -2.27826e-027   
     length 1.69507   
     axis 2.17013e-015 90 90   XYZ
    dof ry
    limits (-180.0 0.0)
 end
  begin
     id 21 
     name lhand
     direction 1 -4.49009e-011 -4.55652e-027   
     length 0.572425   
     axis 2.90745e-015 90 90   XYZ
    dof rx rz
    limits (-90.0 90.0)
           (-45.0 45.0)
  end
  begin
     id 22 
     name lfingers
     direction 1 -4.48955e-011 -9.11303e-027   
     length 0.461504   
     axis 5.81489e-015 90 90   XYZ
    dof rx
    limits (0.0 90.0)
  end
  begin
     id 23
     name lthumb
     direction 0.707107 -6.34929e-011 0.707107   
     length 0.66263   
     axis -90 45 2.85299e-015   XYZ
    dof rx rz
    limits (-45.0 45.0)
           (-45.0 45.0)
  end
  begin
     id 24 
     name rclavicle
     direction -0.754477 0.632921 -0.173712   
     length 2.73081  
     axis 0 0 0   XYZ 
    dof ry rz
    limits (-10.0 20.0)
           (-20.0 0.0)
  end
  begin
     id 25 
     name rhumerus
     direction -1 -4.48969e-011 5.1496e-027  
     length 5.0701   
     axis -180 30 90   XYZ
    dof rx ry rz
    limits (-90.0 60.0)
           (-90.0 90.0)
           (-90.0 90.0)
  end
  begin
     id 26 
     name rradius
     direction -1 -4.48967e-011 -7.15624e-028   
     length 3.14957   
     axis -180 30 90   XYZ
    dof rx
    limits (-10.0 170.0)
  end
  begin
     id 27 
     name rwrist
     direction -1 -4.48938e-011 -2.27826e-027   
     length 1.57479   
     axis 2.17013e-015 -90 -90   XYZ
    dof ry
    limits (-180.0 0.0)
  end
  begin
     id 28
     name rhand
     direction -1 -4.49008e-011 -4.55652e-027   
     length 0.718191   
     axis 2.90745e-015 -90 -90   XYZ
    dof rx rz
    limits (-90.0 90.0)
           (-45.0 45.0)
  end
  begin
     id 29
     name rfingers
     direction -1 -4.48953e-011 -9.11303e-027   
     length 0.579024   
     axis 5.81489e-015 -90 -90   XYZ
    dof rx
    limits (0.0 90.0)
  end
  begin
     id 30
     name rthumb
     direction -0.707107 -6.34937e-011 0.707107   
     length 0.831366   
     axis -90 -45 -2.85299e-015   XYZ
    dof rx rz
    limits (-45.0 45.0)
           (-45.0 45.0)
  end
:hierarchy
  begin
    root lhipjoint rhipjoint lowerback
    lhipjoint lfemur
    lfemur ltibia
    ltibia lfoot
    lfoot ltoes
    rhipjoint rfemur
    rfemur rtibia
    rtibia rfoot
    rfoot rtoes
    lowerback upperback
    upperback thorax
    thorax lowerneck lclavicle rclavicle
    lowerneck upperneck
    upperneck head
    lclavicle lhumerus
    lhumerus lradius
    lradius lwrist
    lwrist lhand lthumb
    lhand lfingers
    rclavicle rhumerus
    rhumerus rradius
    rradius rwrist
    rwrist rhand rthumb
    rhand rfingers
  end

#!OML:ASF H:\Male1\Project 1\Capture day 1\Session 1\Male1.ASF
:FULLY-SPECIFIED
:DEGREES
102
root -24.3411 15.1654 0.417789 -184.126 -81.8169 179.47
lowerback 4.94 1.91519 -4.35487
upperback 5.23262 2.27333 -1.75377
thorax 2.53241 0.950621 0.563231
lowerneck -11.699 3.28247 4.73877
upperneck 14.1815 3.34234 0.946885
head 6.30665 1.91244 -0.179124
rclavicle -8.64713e-015 -2.14687e-014
rhumerus -31.1931 -2.79755 -89.6812
rradius 31.6583
rwrist -15.9817
rhand -16.285 -1.64032
rfingers 7.12502
rthumb 9.92525 -31.3863
lclavicle -8.64713e-015 -2.14687e-014
lhumerus -25.6411 -8.99861 88.9418
lradius 26.7106
lwrist -3.35855
lhand -19.2739 15.5239
lfingers 7.12502
lthumb 7.04072 45.3868
rfemur -9.85407 5.33227 21.1818
rtibia 38.7328
rfoot -24.8158 -19.3505
rtoes -32.6673
lfemur -6.61835 -16.5772 -24.0113
ltibia 25.4798
lfoot -23.3688 24.3915
ltoes 8.45529
103
root -24.2969 15.1692 0.411357 -186.969 -81.739 182.151
lowerback 4.83659 1.47353 -4.29406
upperback 5.18135 1.69624 -1.60166
thorax 2.55712 0.664557 0.705519
lowerneck -11.2687 3.7479 5.58693
upperneck 14.3009 3.93393 0.349481
head 6.31386 2.195 -0.45832
rclavicle -4.77083e-015 7.95139e-016
rhumerus -31.3239 -1.71605 -90.1883
rradius 31.3773
rwrist -15.9128
rhand -16.2513 -1.51878
rfingers 7.12502
rthumb 9.95771 -31.2633
lclavicle -4.77083e-015 7.95139e-016
lhumerus -26.0534 -7.62941 88.1712
lradius 26.8527
lwrist -3.30485
lhand -16.8272 17.4461
lfingers 7.12502
lthumb 9.40205 47.2164
rfemur -9.02454 5.28376 21.8187
rtibia 39.2902
rfoot -24.7566 -19.5466
rtoes -32.7861
lfemur -6.59373 -16.555 -23.5314
ltibia 25.5013
lfoot -23.3572 24.1896
ltoes 8.24631
104
root -24.2526 15.162 0.399791 -185.291 -81.7336 180.394
lowerback 4.70205 1.84711 -4.12773
upperback 5.24117 2.2077 -1.57882
thorax 2.67708 0.922224 0.626464
lowerneck -11.6374 3.19971 4.55487
upperneck 14.4612 3.25487 0.966156
head 6.37957 1.8635 -0.15015
rclavicle 2.5345e-014 -1.90833e-014
rhumerus -31.4332 -2.96137 -89.3683
rradius 31.3194
rwrist -15.6232
rhand -15.8547 -1.62986
rfingers 7.12502
rthumb 10.3404 -31.3556
lclavicle 2.5345e-014 -1.90833e-014
lhumerus -25.8729 -8.53329 88.6601
lradius 26.7446
lwrist -3.27939
lhand -16.3773 17.3459
lfingers 7.12502
lthumb 9.83615 47.0962
rfemur -8.24687 5.37613 21.7266
rtibia 39.6308
rfoot -25.004 -19.2485
rtoes -31.9749
lfemur -6.7519 -16.5415 -23.6923
ltibia 25.5676
lfoot -23.3134 24.0207
ltoes 8.5161
105
root -24.2076 15.1592 0.386125 -182.311 -81.8233 177.406
lowerback 4.49503 1.4989 -4.76304
upperback 5.07525 1.74184 -1.70796
thorax 2.62805 0.676152 0.86282
lowerneck -11.2649 3.60514 5.40844
upperneck 14.5299 3.73426 0.534745
head 6.37379 2.10487 -0.387204
rclavicle 7.05686e-015 1.51076e-014
rhumerus -31.6823 -2.49235 -89.7726
rradius 31.1484
rwrist -15.3415
rhand -15.4289 -1.92395
rfingers 7.12502
rthumb 10.7511 -31.6288
lclavicle 7.05686e-015 1.51076e-014
lhumerus -26.3734 -7.70404 88.0017
lradius 26.8914
lwrist -3.10933
lhand -16.5375 16.9785
lfingers 7.12502
lthumb 9.68161 46.736
rfemur -7.46769 5.36159 21.4355
rtibia 39.7459
rfoot -25.2425 -18.9356
rtoes -31.7022
lfemur -7.03358 -16.5506 -24.0064
ltibia 25.6463
lfoot -23.1058 23.8406
ltoes 9.04942
106
root -24.1614 15.1568 0.373803 -182.991 -81.9416 178.197
lowerback 4.23461 1.4824 -4.49374
upperback 4.98912 1.74804 -1.58067
thorax 2.68608 0.690183 0.849417
lowerneck -11.2729 3.48676 5.23855
upperneck 14.6177 3.61561 0.458712
head 6.39746 2.03343 -0.394096
rclavicle -5.66536e-015 7.15625e-015
rhumerus -31.7973 -2.75691 -89.4651
rradius 31.0303
rwrist -15.3406
rhand -15.8686 -1.71575
rfingers 7.12502
rthumb 10.327 -31.4422
lclavicle -5.66536e-015 7.15625e-015
lhumerus -26.5512 -7.76629 88.084
lradius 26.9367
lwrist -2.97585
lhand -16.2758 16.9919
lfingers 7.12502
lthumb 9.93412 46.7375
rfemur -6.58915 5.34028 21.7342
rtibia 39.5557
rfoot -25.4102 -18.635
rtoes -31.9383
lfemur -7.44755 -16.605 -23.7042
ltibia 25.7543
lfoot -22.8041 23.6715
ltoes 9.39338
107
root -24.1175 15.1554 0.360332 -185.131 -82.0834 180.373
lowerback 4.0967 1.94277 -3.53889
upperback 5.02899 2.39418 -1.37235
thorax 2.79933 1.04113 0.523475
lowerneck -11.7767 2.73017 4.0027
upperneck 14.8519 2.71902 0.884275
head 6.50969 1.57202 -0.131024
rclavicle -1.80894e-014 -6.36111e-015
rhumerus -31.9048 -4.23383 -88.3895
rradius 31.0554
rwrist -15.4304
rhand -16.3831 -1.54472
rfingers 7.12502
rthumb 9.83058 -31.2952
lclavicle -1.80894e-014 -6.36111e-015
lhumerus -26.3618 -9.12503 88.9249
lradius 26.8734
lwrist -2.97926
lhand -16.8186 16.5501
lfingers 7.12502
lthumb 9.41034 46.32
rfemur -5.65759 5.61378 22.2128
rtibia 39.0417
rfoot -25.357 -18.1877
rtoes -31.4572
lfemur -7.7343 -16.7108 -23.2392
ltibia 25.8637
lfoot -22.5611 23.5741
ltoes 9.65593
108
root -24.0729 15.1466 0.341475 -184.256 -82.2364 179.402
lowerback 4.05321 2.12665 -3.30311
upperback 5.03268 2.64767 -1.36234
thorax 2.82811 1.1757 0.399363
lowerneck -12.002 2.45431 3.61785
upperneck 14.8927 2.38624 1.01907
head 6.54877 1.40322 -0.0527776
rclavicle -4.16454e-014 1.19271e-014
rhumerus -32.1245 -4.9617 -87.9499
rradius 31.2076
rwrist -15.4769
rhand -16.5188 -1.80371
rfingers 7.12502
rthumb 9.6996 -31.5604
lclavicle -4.16454e-014 1.19271e-014
lhumerus -26.3911 -9.75501 89.1773
lradius 26.8816
lwrist -3.01372
lhand -18.2979 15.7947
lfingers 7.12502
lthumb 7.98285 45.6239
rfemur -4.53244 5.87582 22.283
rtibia 38.2066
rfoot -24.7342 -18.2263
rtoes -32.6394
lfemur -7.93038 -16.8092 -23.2769
ltibia 26.0565
lfoot -22.3974 23.5677
ltoes 9.33569
